{"title":"Chronicle 2012 DC BRRiP x264 AC3-BadMeetsEvil","uid":8676426,"size":1466818463,"categoryP":"video","categoryS":"movies","magnet":"?xt=urn:btih:226733414bc368adcfbb805ee17d919225cc698f&amp;dn=Chronicle+2012+DC+BRRiP+x264+AC3-BadMeetsEvil&amp;tr=udp%3A%2F%2Ftracker.openbittorrent.com%3A80&amp;tr=udp%3A%2F%2Fopen.demonii.com%3A1337&amp;tr=udp%3A%2F%2Ftracker.coppersurfer.tk%3A6969&amp;tr=udp%3A%2F%2Fexodus.desync.com%3A6969","seeders":2,"leechers":0,"uploader":"ValidusVyto","files":-1,"time":1373606237,"description":"_______ Visit us at our Semi Public Bittorrent Community ________\n    &lt;a href=&quot;\nhttp://p2pdl.com&quot; rel=&quot;nofollow&quot; target=&quot;_NEW&quot;&gt;\nhttp://p2pdl.com&lt;/a&gt;  _____________________________ &lt;a href=&quot; http://p2pdl.com&quot; rel=&quot;nofollow&quot; target=&quot;_NEW&quot;&gt; http://p2pdl.com&lt;/a&gt;\n\n\nChronicle 2012 DC BRRiP x264 AC3-BadMeetsEvil\n\niMDB   &lt;a href=&quot; http://www.imdb.com/title/tt1706593&quot; rel=&quot;nofollow&quot; target=&quot;_NEW&quot;&gt; http://www.imdb.com/title/tt1706593&lt;/a&gt;\n\nSource  720p REFiNED  -  MANY THANKX\n\nMedia Info\nChronicle 2012 DC BRRiP x264 AC3-BadMeetsEvil.mp4\nFormat                                   : MPEG-4\nFormat profile                           : Base Media\nCodec ID                                 : isom\nFile size                                : 1.37 GiB\nDuration                                 : 1h 29mn\nOverall bit rate mode                    : Variable\nOverall bit rate                         : 2 185 Kbps\nVideo\nID                                       : 1\nFormat                                   : AVC\nFormat/Info                              : Advanced Video Codec\nFormat profile                           : &lt;a class=&quot;__cf_email__&quot; href=&quot;/cdn-cgi/l/email-protection&quot; data-cfemail=&quot;c58daca2ad8589f1ebf4&quot;&gt;[email&amp;#160;protected]&lt;/a&gt;&lt;script cf-hash='f9e31' type=&quot;text/javascript&quot;&gt;\n/* &lt;![CDATA[ */!function(){try{var t=&quot;currentScript&quot;in document?document.currentScript:function(){for(var t=document.getElementsByTagName(&quot;script&quot;),e=t.length;e--;)if(t[e].getAttribute(&quot;cf-hash&quot;))return t[e]}();if(t&amp;&amp;t.previousSibling){var e,r,n,i,c=t.previousSibling,a=c.getAttribute(&quot;data-cfemail&quot;);if(a){for(e=&quot;&quot;,r=parseInt(a.substr(0,2),16),n=2;a.length-n;n+=2)i=parseInt(a.substr(n,2),16)^r,e+=String.fromCharCode(i);e=document.createTextNode(e),c.parentNode.replaceChild(e,c)}}}catch(u){}}();/* ]]&gt; */&lt;/script&gt;\nFormat settings, CABAC                   : Yes\nFormat settings, ReFrames                : 3 frames\nCodec ID                                 : avc1\nCodec ID/Info                            : Advanced Video Coding\nDuration                                 : 1h 29mn\nBit rate mode                            : Variable\nBit rate                                 : 1 800 Kbps\nMaximum bit rate                         : 40.0 Mbps\nWidth                                    : 720 pixels\nHeight                                   : 384 pixels\nDisplay aspect ratio                     : 1.85:1\nFrame rate mode                          : Constant\nFrame rate                               : 23.976 fps\nBit depth                                : 8 bits\nScan type                                : Progressive\nBits/(Pixel*Frame)                       : 0.272\nStream size                              : 1.12 GiB (82%)\nTitle                                    : Chronicle 2012 DC BRRiP x264 AC3-BadMeetsEvil\nWriting library                          : x264 core 133 r2334 a3ac64b\n\nAudio\nFormat                                   : AC-3\nFormat/Info                              : Audio Coding 3\nMode extension                           : CM (complete main)\nFormat settings, Endianness              : Big\nCodec ID                                 : ac-3\nDuration                                 : 1h 29mn\nBit rate mode                            : Constant\nBit rate                                 : 384 Kbps\nChannel(s)                               : 6 channels\nChannel positions                        : Front: L C R, Side: L R, LFE\nSampling rate                            : 48.0 KHz\nStream size                              : 246 MiB (18%)\n &lt;a href=&quot;\nhttp://ultraimg.com/images/BQ2z.png&quot; rel=&quot;nofollow&quot; target=&quot;_NEW&quot;&gt;\nhttp://ultraimg.com/images/BQ2z.png&lt;/a&gt; &lt;a href=&quot;\nhttp://ultraimg.com/images/81ak2.png&quot; rel=&quot;nofollow&quot; target=&quot;_NEW&quot;&gt;\nhttp://ultraimg.com/images/81ak2.png&lt;/a&gt; &lt;a href=&quot;\nhttp://ultraimg.com/images/GhAew.png&quot; rel=&quot;nofollow&quot; target=&quot;_NEW&quot;&gt;\nhttp://ultraimg.com/images/GhAew.png&lt;/a&gt; &lt;a href=&quot;\nhttp://ultraimg.com/images/ug3KG.png&quot; rel=&quot;nofollow&quot; target=&quot;_NEW&quot;&gt;\nhttp://ultraimg.com/images/ug3KG.png&lt;/a&gt;","torrent":{"xt":"urn:btih:226733414bc368adcfbb805ee17d919225cc698f","amp;dn":"Chronicle+2012+DC+BRRiP+x264+AC3-BadMeetsEvil","amp;tr":["udp%3A%2F%2Ftracker.openbittorrent.com%3A80","udp%3A%2F%2Fopen.demonii.com%3A1337","udp%3A%2F%2Ftracker.coppersurfer.tk%3A6969","udp%3A%2F%2Fexodus.desync.com%3A6969"],"infoHash":"226733414bc368adcfbb805ee17d919225cc698f","infoHashBuffer":{"type":"Buffer","data":[34,103,51,65,75,195,104,173,207,187,128,94,225,125,145,146,37,204,105,143]},"announce":[],"urlList":[]}}